<?xml version="1.0" encoding="iso-8859-1"?>
<!-- Generator: Adobe Illustrator 19.0.0, SVG Export Plug-In . SVG Version: 6.00 Build 0)  -->
<svg version="1.1" id="Layer_1" xmlns="http://www.w3.org/2000/svg" xmlns:xlink="http://www.w3.org/1999/xlink" x="0px" y="0px"
	 viewBox="0 0 512 512" style="enable-background:new 0 0 512 512;" xml:space="preserve">
<path style="fill:#27AAE1;" d="M501.106,179.82v283.158H10.894V179.82c24.511,0,24.511,13.072,49.021,13.072
	s24.511-13.072,49.021-13.072s24.511,13.072,49.021,13.072s24.511-13.072,49.021-13.072s24.511,13.072,49.021,13.072
	s24.511-13.072,49.01-13.072c24.511,0,24.511,13.072,49.032,13.072c24.5,0,24.5-13.072,49.01-13.072
	c24.522,0,24.522,13.072,49.032,13.072C476.596,192.892,476.596,179.82,501.106,179.82z"/>
<g>
	<path style="fill:#FBA026;" d="M386.308,275.956c0,0-25.849,28.868-57.736,28.868s-57.736-28.868-57.736-28.868
		s25.849-28.868,57.736-28.868S386.308,275.956,386.308,275.956z"/>
	<path style="fill:#FBA026;" d="M276.135,386.13c0,0-25.849,28.868-57.736,28.868s-57.736-28.868-57.736-28.868
		s25.849-28.868,57.736-28.868S276.135,386.13,276.135,386.13z"/>
</g>
<path style="fill:#EFEFEF;" d="M501.106,119.829v59.991c-24.511,0-24.511,13.072-49.021,13.072
	c-24.511,0-24.511-13.072-49.032-13.072c-24.511,0-24.511,13.072-49.01,13.072c-24.522,0-24.522-13.072-49.032-13.072
	c-24.5,0-24.5,13.072-49.01,13.072s-24.511-13.072-49.021-13.072s-24.511,13.072-49.021,13.072s-24.511-13.072-49.021-13.072
	s-24.511,13.072-49.021,13.072S35.404,179.82,10.894,179.82v-59.991H501.106z"/>
<rect x="62.638" y="49.021" style="fill:#D1D5D8;" width="386.723" height="70.809"/>
<g>
	<path style="fill:#231F20;" d="M231.557,306.36c2.147,2.773,5.367,4.227,8.622,4.226c2.329,0,4.676-0.744,6.66-2.279l23.211-17.967
		c10.845,9.58,32.647,25.377,58.522,25.377c36.337,0,64.663-31.168,65.852-32.495c3.704-4.136,3.704-10.398,0-14.534
		c-1.187-1.327-29.514-32.495-65.852-32.495c-25.875,0-47.677,15.798-58.522,25.377l-23.211-17.967
		c-4.758-3.68-11.6-2.811-15.283,1.947c-3.682,4.757-2.812,11.6,1.947,15.283l19.536,15.121l-19.535,15.124
		C228.745,294.761,227.875,301.603,231.557,306.36z M328.572,257.982c17.167,0,32.827,10.494,41.79,17.954
		c-8.995,7.459-24.724,17.995-41.79,17.995c-17.172,0-32.833-10.498-41.791-17.954C295.776,268.518,311.505,257.982,328.572,257.982
		z"/>
	<path style="fill:#231F20;" d="M218.398,346.368c-25.876,0-47.677,15.798-58.522,25.378l-23.211-17.967
		c-4.758-3.681-11.6-2.812-15.283,1.947c-3.682,4.757-2.812,11.6,1.947,15.283l19.536,15.121l-19.536,15.121
		c-4.757,3.683-5.629,10.525-1.947,15.283c2.147,2.774,5.367,4.227,8.622,4.226c2.329,0,4.676-0.744,6.66-2.279l23.211-17.967
		c10.845,9.58,32.647,25.378,58.522,25.378c36.337,0,64.663-31.168,65.852-32.495c3.704-4.136,3.704-10.398,0-14.534
		C283.063,377.536,254.736,346.368,218.398,346.368z M218.398,404.104c-17.187,0-32.862-10.517-41.814-17.973
		c8.959-7.463,24.63-17.976,41.814-17.976c17.167,0,32.827,10.494,41.79,17.954C251.194,393.568,235.464,404.104,218.398,404.104z"
		/>
	<path style="fill:#231F20;" d="M501.106,108.935h-40.848V49.022c0-6.015-4.877-10.894-10.894-10.894H62.642
		c-6.017,0-10.894,4.878-10.894,10.894v59.913H10.894C4.877,108.935,0,113.813,0,119.829v343.149
		c0,6.015,4.877,10.894,10.894,10.894h490.213c6.017,0,10.894-4.878,10.894-10.894V119.829
		C512,113.813,507.123,108.935,501.106,108.935z M73.535,59.916h364.936v49.019H73.535C73.535,108.935,73.535,59.916,73.535,59.916z
		 M490.213,452.084H21.787V192.125c3.041,0.936,5.557,2.279,8.49,3.842c6.531,3.483,14.658,7.818,29.637,7.818
		s23.106-4.335,29.637-7.818c5.719-3.05,9.852-5.254,19.384-5.254s13.664,2.204,19.384,5.254c6.531,3.483,14.658,7.818,29.637,7.818
		c14.979,0,23.106-4.335,29.637-7.818c5.719-3.05,9.852-5.254,19.384-5.254c9.532,0,13.664,2.204,19.384,5.254
		c6.531,3.483,14.658,7.818,29.637,7.818c14.981,0,23.108-4.336,29.639-7.819c5.717-3.05,9.847-5.253,19.371-5.253
		c9.531,0,13.664,2.204,19.384,5.254c6.533,3.483,14.663,7.818,29.648,7.818c14.972,0,23.098-4.335,29.626-7.817
		c5.719-3.051,9.851-5.255,19.384-5.255c9.54,0,13.675,2.204,19.397,5.256c6.531,3.482,14.66,7.816,29.636,7.816
		c14.979,0,23.106-4.335,29.637-7.818c2.934-1.564,5.449-2.906,8.49-3.842v259.959H490.213z M471.469,176.745
		c-5.719,3.05-9.852,5.254-19.384,5.254c-9.531,0-13.664-2.204-19.384-5.254c-6.533-3.483-14.663-7.818-29.648-7.818
		c-14.981,0-23.108,4.336-29.639,7.819c-5.717,3.05-9.847,5.253-19.371,5.253c-9.54,0-13.675-2.204-19.397-5.256
		c-6.531-3.482-14.66-7.816-29.636-7.816c-14.972,0-23.098,4.335-29.626,7.817c-5.719,3.051-9.851,5.255-19.384,5.255
		c-9.532,0-13.664-2.204-19.384-5.254c-6.531-3.483-14.658-7.818-29.637-7.818c-14.979,0-23.106,4.335-29.637,7.818
		c-5.719,3.05-9.852,5.254-19.384,5.254c-9.532,0-13.664-2.204-19.384-5.254c-6.531-3.483-14.658-7.818-29.637-7.818
		s-23.106,4.335-29.637,7.818c-5.719,3.05-9.852,5.254-19.384,5.254s-13.664-2.204-19.384-5.254
		c-4.739-2.527-10.334-5.495-18.761-6.938l0.019-0.008v-39.076h468.426v39.076l0.017,0.008
		C481.803,171.25,476.208,174.217,471.469,176.745z"/>
	<path style="fill:#231F20;" d="M331.486,375.236h-2.179c-6.017,0-10.894,4.878-10.894,10.894c0,6.015,4.877,10.894,10.894,10.894
		h2.179c6.017,0,10.894-4.878,10.894-10.894C342.38,380.114,337.503,375.236,331.486,375.236z"/>
	<path style="fill:#231F20;" d="M424.274,375.236h-49.021c-6.017,0-10.894,4.878-10.894,10.894c0,6.015,4.877,10.894,10.894,10.894
		h49.021c6.017,0,10.894-4.878,10.894-10.894C435.167,380.114,430.29,375.236,424.274,375.236z"/>
	<path style="fill:#231F20;" d="M76.576,265.062h-2.179c-6.017,0-10.894,4.878-10.894,10.894c0,6.015,4.877,10.894,10.894,10.894
		h2.179c6.017,0,10.894-4.878,10.894-10.894C87.469,269.941,82.592,265.062,76.576,265.062z"/>
	<path style="fill:#231F20;" d="M169.363,286.85c6.017,0,10.894-4.878,10.894-10.894c0-6.015-4.877-10.894-10.894-10.894h-49.021
		c-6.017,0-10.894,4.878-10.894,10.894c0,6.015,4.877,10.894,10.894,10.894H169.363z"/>
</g>
<g>
</g>
<g>
</g>
<g>
</g>
<g>
</g>
<g>
</g>
<g>
</g>
<g>
</g>
<g>
</g>
<g>
</g>
<g>
</g>
<g>
</g>
<g>
</g>
<g>
</g>
<g>
</g>
<g>
</g>
</svg>
