<?xml version="1.0" encoding="iso-8859-1"?>
<!-- Generator: Adobe Illustrator 19.0.0, SVG Export Plug-In . SVG Version: 6.00 Build 0)  -->
<svg version="1.1" id="Layer_1" xmlns="http://www.w3.org/2000/svg" xmlns:xlink="http://www.w3.org/1999/xlink" x="0px" y="0px"
	 viewBox="0 0 512 512" style="enable-background:new 0 0 512 512;" xml:space="preserve">
<rect x="7.93" y="159.976" style="fill:#FEC986;" width="496.137" height="272.079"/>
<g>
	<polyline style="fill:#FFFFFF;" points="47.941,392.038 131.774,307.823 171.976,348.026 191.982,328.021 231.992,368.032 	"/>
	<polyline style="fill:#FFFFFF;" points="47.941,392.038 47.941,199.983 231.992,199.983 231.992,368.032 	"/>
</g>
<polygon style="fill:#9B4573;" points="231.992,392.038 47.941,392.038 131.774,307.823 171.976,348.026 191.982,328.021 
	231.992,368.032 "/>
<path style="fill:#1D1D1B;" d="M239.922,399.968H40.012V192.054h199.912v207.914H239.922z M55.871,384.109h168.193V207.913H55.871
	V384.109z"/>
<g>
	<circle style="fill:#C8546F;" cx="183.976" cy="255.998" r="16.007"/>
	<rect x="7.93" y="79.951" style="fill:#C8546F;" width="496.137" height="80.025"/>
</g>
<g>
	<path style="fill:#1D1D1B;" d="M512,439.98H0V72.021h512V439.98z M15.859,424.12h480.282V87.88H15.859V424.12z"/>
	<rect x="23.934" y="152.047" style="fill:#1D1D1B;" width="464.133" height="15.859"/>
</g>
<g>
	<rect x="39.939" y="112.029" style="fill:#FFFFFF;" width="72.022" height="15.859"/>
	<rect x="400.041" y="112.029" style="fill:#FFFFFF;" width="72.022" height="15.859"/>
</g>
<g>
	<rect x="264.001" y="256.072" style="fill:#1D1D1B;" width="16.007" height="15.859"/>
	<rect x="296.016" y="256.072" style="fill:#1D1D1B;" width="16.007" height="15.859"/>
	<rect x="328.019" y="256.072" style="fill:#1D1D1B;" width="16.007" height="15.859"/>
	<rect x="360.034" y="256.072" style="fill:#1D1D1B;" width="16.007" height="15.859"/>
	<rect x="392.037" y="256.072" style="fill:#1D1D1B;" width="16.007" height="15.859"/>
	<rect x="424.052" y="256.072" style="fill:#1D1D1B;" width="16.007" height="15.859"/>
	<rect x="456.055" y="256.072" style="fill:#1D1D1B;" width="16.007" height="15.859"/>
	<rect x="264.001" y="288.086" style="fill:#1D1D1B;" width="16.007" height="15.859"/>
	<rect x="296.016" y="288.086" style="fill:#1D1D1B;" width="16.007" height="15.859"/>
	<rect x="328.019" y="288.086" style="fill:#1D1D1B;" width="16.007" height="15.859"/>
	<rect x="360.034" y="288.086" style="fill:#1D1D1B;" width="16.007" height="15.859"/>
	<rect x="392.037" y="288.086" style="fill:#1D1D1B;" width="16.007" height="15.859"/>
	<rect x="424.052" y="288.086" style="fill:#1D1D1B;" width="16.007" height="15.859"/>
	<rect x="456.055" y="288.086" style="fill:#1D1D1B;" width="16.007" height="15.859"/>
	<rect x="264.001" y="320.09" style="fill:#1D1D1B;" width="16.007" height="15.859"/>
	<rect x="296.016" y="320.09" style="fill:#1D1D1B;" width="16.007" height="15.859"/>
	<rect x="328.019" y="320.09" style="fill:#1D1D1B;" width="16.007" height="15.859"/>
	<rect x="360.034" y="320.09" style="fill:#1D1D1B;" width="16.007" height="15.859"/>
	<rect x="392.037" y="320.09" style="fill:#1D1D1B;" width="16.007" height="15.859"/>
	<rect x="424.052" y="320.09" style="fill:#1D1D1B;" width="16.007" height="15.859"/>
	<rect x="456.055" y="320.09" style="fill:#1D1D1B;" width="16.007" height="15.859"/>
	<rect x="264.001" y="352.104" style="fill:#1D1D1B;" width="16.007" height="15.859"/>
	<rect x="296.016" y="352.104" style="fill:#1D1D1B;" width="16.007" height="15.859"/>
	<rect x="328.019" y="352.104" style="fill:#1D1D1B;" width="16.007" height="15.859"/>
	<rect x="360.034" y="352.104" style="fill:#1D1D1B;" width="16.007" height="15.859"/>
	<rect x="392.037" y="352.104" style="fill:#1D1D1B;" width="16.007" height="15.859"/>
	<rect x="424.052" y="352.104" style="fill:#1D1D1B;" width="16.007" height="15.859"/>
	<rect x="456.055" y="352.104" style="fill:#1D1D1B;" width="16.007" height="15.859"/>
	<rect x="264.001" y="384.108" style="fill:#1D1D1B;" width="16.007" height="15.859"/>
	<rect x="296.016" y="384.108" style="fill:#1D1D1B;" width="16.007" height="15.859"/>
	<rect x="328.019" y="384.108" style="fill:#1D1D1B;" width="16.007" height="15.859"/>
	<rect x="360.034" y="384.108" style="fill:#1D1D1B;" width="16.007" height="15.859"/>
	<rect x="392.037" y="224.068" style="fill:#1D1D1B;" width="16.007" height="15.859"/>
	<rect x="424.052" y="224.068" style="fill:#1D1D1B;" width="16.007" height="15.859"/>
	<rect x="456.055" y="224.068" style="fill:#1D1D1B;" width="16.007" height="15.859"/>
</g>
<rect x="312.012" y="192.054" style="fill:#FFFFFF;" width="160.04" height="15.859"/>
<g>
	<path style="fill:#1D1D1B;" d="M40.012,192.054v207.913h199.912V192.054H40.012z M224.063,207.913v140.975l-32.082-32.082
		l-20.006,20.006L131.964,296.8L55.87,372.894V207.913H224.063z M67.085,384.109l64.88-64.88l40.012,40.011l20.006-20.006
		l32.082,32.083v12.792H67.085V384.109z"/>
	<path style="fill:#1D1D1B;" d="M183.98,279.935c-13.197,0-23.935-10.737-23.935-23.935c0-13.198,10.737-23.935,23.935-23.935
		c13.198,0,23.935,10.737,23.935,23.935C207.914,269.198,197.176,279.935,183.98,279.935z M183.98,247.925
		c-4.452,0-8.075,3.622-8.075,8.075c0,4.453,3.622,8.075,8.075,8.075s8.075-3.622,8.075-8.075
		C192.055,251.547,188.432,247.925,183.98,247.925z"/>
</g>
<g>
</g>
<g>
</g>
<g>
</g>
<g>
</g>
<g>
</g>
<g>
</g>
<g>
</g>
<g>
</g>
<g>
</g>
<g>
</g>
<g>
</g>
<g>
</g>
<g>
</g>
<g>
</g>
<g>
</g>
</svg>
